PathFileType	4	(X/Y/Z)	C:\Users\Basilio\Documents\Thesis Gigler\squatting_fais\c3dfiles\076\SLS_front_pre5\markers_experimental.trc
DataRate	CameraRate	NumFrames	NumMarkers	Units	OrigDataRate	OrigDataStartFrame	OrigNumFrames
200.000000	200.000000	4	61	mm	200.000000	1113	1782
Frame#	Time	FHD			LBHD			RBHD			C7			T10			CLAV			LSHO			LUUPA			LMUPA			LDUPA			LLEP			LMEP			LRAD			LUL			LRFIN			RSHO			RUPA1			RMUPA			RDUPA			RLEP			RMEP			RRAD			RUL			RUFIN			LASI			RASI			USACR			LSACR			RSACR			LTHI1			LTHI2			LTHI3			LTHI4			LLFC			LMFC			LTIB1			LTIB2			LTIB3			LTIB4			LLMAL			LMMAL			LHEE			LMT1			LMT2			LMT5			RTHI			RTHI2			RTHI3			RTHI4			RLFC			RMFC			RTIB1			RTIB2			RTIB3			RTIB4			RLMAL			RMMAL			RHEE			RMT1			RMT2			RMT5			
		X1	Y1	Z1	X2	Y2	Z2	X3	Y3	Z3	X4	Y4	Z4	X5	Y5	Z5	X6	Y6	Z6	X7	Y7	Z7	X8	Y8	Z8	X9	Y9	Z9	X10	Y10	Z10	X11	Y11	Z11	X12	Y12	Z12	X13	Y13	Z13	X14	Y14	Z14	X15	Y15	Z15	X16	Y16	Z16	X17	Y17	Z17	X18	Y18	Z18	X19	Y19	Z19	X20	Y20	Z20	X21	Y21	Z21	X22	Y22	Z22	X23	Y23	Z23	X24	Y24	Z24	X25	Y25	Z25	X26	Y26	Z26	X27	Y27	Z27	X28	Y28	Z28	X29	Y29	Z29	X30	Y30	Z30	X31	Y31	Z31	X32	Y32	Z32	X33	Y33	Z33	X34	Y34	Z34	X35	Y35	Z35	X36	Y36	Z36	X37	Y37	Z37	X38	Y38	Z38	X39	Y39	Z39	X40	Y40	Z40	X41	Y41	Z41	X42	Y42	Z42	X43	Y43	Z43	X44	Y44	Z44	X45	Y45	Z45	X46	Y46	Z46	X47	Y47	Z47	X48	Y48	Z48	X49	Y49	Z49	X50	Y50	Z50	X51	Y51	Z51	X52	Y52	Z52	X53	Y53	Z53	X54	Y54	Z54	X55	Y55	Z55	X56	Y56	Z56	X57	Y57	Z57	X58	Y58	Z58	X59	Y59	Z59	X60	Y60	Z60	X61	Y61	Z61	

1114	5.565	-249.9874572753907	1397.4443359375	-1012.773742675781	-381.7267150878907	1321.065307617188	-1115.2822265625	-372.5318298339844	1322.240112304688	-963.3399047851565	-422.764862060547	1204.636352539063	-1033.525756835938	-503.3265991210939	905.2525024414065	-1029.635498046875	-298.7011718750001	1124.005615234375	-1041.559814453125	-352.6370849609376	1154.3154296875	-1198.869384765625	-210.5676269531251	1116.865966796875	-1281.521850585938	-177.3340301513672	1135.599365234375	-1249.462890625	-145.1483154296875	1115.721313476563	-1297.9931640625	-93.1527557373047	1100.312744140625	-1311.0791015625	-81.15203094482423	1038.688842773438	-1262.975952148438	152.087875366211	1143.038330078125	-1263.450927734375	147.8218231201172	1146.466064453125	-1328.45263671875	234.2015838623047	1164.574096679688	-1264.727783203125	-334.8165893554688	1151.388305664063	-884.5516357421877	-199.3651275634766	1094.599975585938	-797.6186523437502	-169.63427734375	1128.096801757813	-817.4773559570315	-129.5577392578125	1088.840942382813	-793.3577270507815	-62.2467498779297	1094.311279296875	-796.5200805664065	-57.9011573791504	1047.042846679688	-855.3278808593752	181.0831298828125	1119.158813476563	-853.2720947265627	173.2494812011719	1115.299560546875	-787.0493164062502	253.5827789306641	1140.933837890625	-842.697204589844	-362.2308349609376	730.7047119140626	-1133.57861328125	-366.4504394531251	731.3527832031251	-916.8872070312502	-528.9440307617189	790.531433105469	-1025.856201171875	-536.4240112304689	762.1310424804689	-1056.378173828125	-539.5587158203126	757.9036865234376	-999.5424804687502	-357.3027648925782	597.7388916015626	-1206.239013671875	-278.5700073242188	567.5609741210939	-1201.341552734375	-247.026840209961	600.6911010742189	-1180.719604492188	-259.6894226074219	509.7190246582032	-1191.65869140625	-152.6512603759766	399.2184448242189	-1154.255493164063	-145.8323211669922	415.4435119628907	-1038.138671875	-184.047607421875	281.5111999511719	-1051.014526367188	-224.5029754638672	226.8582305908204	-1108.892700195313	-202.1506652832032	227.6730957031251	-1066.449340820313	-263.9387207031251	185.7212219238282	-1027.582397460938	-375.2792053222657	107.0058364868164	-1073.243774414063	-348.7508239746094	120.8904800415039	-991.023864746094	-440.7632751464845	96.46939086914065	-1024.726928710938	-238.9136505126954	50.66814422607423	-1003.086853027344	-233.1229400634766	48.86680984497072	-1041.880615234375	-258.0674743652344	43.91610336303712	-1092.101318359375	-284.2479858398438	541.0705566406251	-858.8040771484377	-217.9674224853516	546.0088500976564	-865.282165527344	-204.2244720458985	576.4179687500001	-875.4196777343752	-165.0762939453125	484.3692932128907	-885.719909667969	-116.7602005004883	452.8554077148439	-892.9696044921877	-100.879135131836	473.5758056640626	-1007.648254394531	19.19553947448731	415.4247131347657	-913.890563964844	49.85274124145509	312.9445800781251	-890.0395507812502	76.16228485107423	350.5463562011719	-900.8392333984377	121.3675231933594	337.9934082031251	-934.8306884765627	211.154281616211	208.0381317138672	-906.3071289062502	207.2607727050782	238.4637908935547	-985.608337402344	210.2128448486329	146.4878082275391	-948.9602661132815	321.2497558593751	319.6453857421876	-973.8928222656252	314.1479492187501	330.2271118164063	-926.4290161132815	317.7854003906251	297.5787963867188	-873.6575927734377	
1115	5.57	-250.1318054199219	1398.101196289063	-1012.672790527344	-381.9014587402344	1321.75390625	-1115.202392578125	-372.8622741699219	1322.953979492188	-963.284606933594	-422.8166809082032	1205.384155273438	-1033.392333984375	-503.2851562500001	906.0225219726565	-1029.6611328125	-298.8280944824219	1124.943359375	-1041.451293945313	-353.0939941406251	1155.234741210938	-1199.05126953125	-210.7597045898438	1117.645385742188	-1281.477905273438	-177.3739929199219	1136.4921875	-1249.374633789063	-145.0859985351563	1116.64990234375	-1297.832397460938	-93.97837829589845	1101.4609375	-1311.3662109375	-81.29796600341798	1039.604614257813	-1262.960571289063	151.99365234375	1143.985717773438	-1263.5107421875	147.9545593261719	1147.296264648438	-1328.513671875	233.8533172607422	1165.933227539063	-1264.640869140625	-335.0397644042969	1152.1259765625	-884.469665527344	-199.5998840332032	1095.184448242188	-797.5720214843752	-169.889144897461	1129.114013671875	-817.253356933594	-129.681640625	1089.39208984375	-793.300476074219	-62.40410232543947	1094.961791992188	-796.4739379882815	-58.01415634155275	1047.778930664063	-855.366882324219	181.2127990722657	1119.917114257813	-853.1342773437502	173.1239471435547	1115.907958984375	-786.844665527344	253.542953491211	1141.524780273438	-842.4843750000002	-362.0309448242188	731.4777221679689	-1133.59716796875	-366.2516479492188	732.0779418945314	-916.9362792968752	-528.9884033203126	791.3077392578127	-1025.897216796875	-536.3179321289064	762.7793579101564	-1056.364013671875	-539.5507202148439	758.4768066406251	-999.5447387695315	-357.5017700195313	598.2274169921876	-1206.070556640625	-278.6199035644532	567.8629760742189	-1201.21630859375	-246.9827880859376	601.0897827148439	-1180.738403320313	-259.7776184082032	510.197235107422	-1191.53173828125	-153.0708465576172	399.5110168457032	-1154.02685546875	-146.0122222900391	415.7088317871095	-1038.061767578125	-184.2297973632813	281.6394653320313	-1050.87744140625	-224.7624206542969	226.9300689697266	-1108.799682617188	-202.3083038330079	227.7930603027344	-1066.362915039063	-264.0920104980469	185.7169799804688	-1027.474853515625	-375.2828063964844	106.997299194336	-1073.160400390625	-348.7983703613282	120.8602447509766	-990.987243652344	-440.7658996582032	96.4510192871094	-1024.726318359375	-238.9072265625001	50.66261672973634	-1003.050354003906	-233.1322174072266	48.8967742919922	-1041.884399414063	-258.0510864257813	43.8952865600586	-1092.064208984375	-284.0914916992188	541.8977050781251	-858.8710937500002	-217.8469238281251	546.6636352539064	-865.2241210937502	-204.0835723876954	577.3179931640626	-875.5355224609377	-164.9537506103516	484.9995117187501	-885.7088623046877	-116.5767364501953	453.7364807128907	-893.0489501953127	-100.9483261108399	474.6763610839845	-1007.7548828125	19.8031120300293	416.4735717773439	-914.257019042969	50.1805763244629	313.7908325195313	-890.202087402344	76.50143432617189	351.7498779296876	-901.0648193359377	121.7052154541016	339.1676635742188	-934.989929199219	211.6313476562501	209.5105133056641	-906.388122558594	207.7134399414063	239.7812652587891	-986.0706787109377	210.6702575683594	147.8733062744141	-949.056823730469	321.6639404296876	321.0570068359376	-974.116638183594	315.1418762207032	331.0000610351563	-926.9982910156252	318.3994750976563	299.4489135742188	-873.3159790039065	
1116	5.575	-250.4009552001954	1398.960571289063	-1012.555419921875	-382.0983886718751	1322.494140625	-1115.009399414063	-373.0470886230469	1323.734375	-963.1834106445315	-422.9456176757814	1206.120971679688	-1033.328491210938	-503.2399291992189	906.8594360351565	-1029.691772460938	-298.8696899414063	1125.758666992188	-1041.43994140625	-353.1940917968751	1155.96337890625	-1198.926147460938	-211.0540008544922	1118.581665039063	-1281.404541015625	-177.540023803711	1137.481811523438	-1249.350219726563	-144.9637756347657	1117.484619140625	-1297.67578125	-94.16904449462892	1102.364868164063	-1311.347778320313	-81.6298065185547	1040.630126953125	-1263.0419921875	151.8106384277344	1145.2080078125	-1263.201049804688	147.481689453125	1148.460571289063	-1328.18359375	234.1513214111329	1166.888427734375	-1264.786987304688	-335.0434570312501	1152.773071289063	-884.370300292969	-199.7759399414063	1095.858764648438	-797.5064697265627	-170.012924194336	1129.600219726563	-817.171569824219	-129.8414306640625	1090.1572265625	-793.1903076171877	-62.54151153564455	1095.640014648438	-796.3533325195315	-58.14690017700197	1048.548950195313	-855.1510009765627	181.1707763671875	1120.438354492188	-852.9057617187502	172.9590759277344	1116.571655273438	-786.6881103515627	253.4062805175782	1142.203369140625	-842.236999511719	-361.8867187500001	732.1442871093751	-1133.668334960938	-366.1633300781251	733.0473022460939	-916.9897460937502	-528.9239501953126	791.8411865234377	-1025.931274414063	-536.1983642578126	763.5321044921876	-1056.276611328125	-539.4180297851564	759.3067626953126	-999.520446777344	-357.4913635253907	598.5694580078126	-1205.892578125	-278.7414245605469	568.2304687500001	-1201.077392578125	-246.8430175781251	601.4963989257814	-1180.736206054688	-260.1312866210938	510.6954345703126	-1191.534790039063	-153.4837493896485	399.7832641601564	-1153.919311523438	-146.3110046386719	415.9671325683595	-1037.997802734375	-184.3995971679688	281.8516845703126	-1050.833618164063	-224.9609680175782	226.9212188720704	-1108.751953125	-202.3852844238282	227.9514770507813	-1066.239624023438	-264.0645141601563	186.0142364501953	-1027.378051757813	-375.2040710449219	107.0121841430664	-1073.12109375	-348.8483886718751	120.8955917358399	-990.8718261718752	-440.7435913085939	96.45169830322268	-1024.715942382813	-238.9001007080079	50.67161560058595	-1003.068969726563	-233.1233673095704	48.91625595092775	-1041.879150390625	-258.1237487792969	43.96372985839844	-1092.074951171875	-283.8629455566407	542.8156738281251	-858.832458496094	-217.6036224365235	547.6602172851564	-865.1309814453127	-204.0579833984376	578.0823974609376	-875.657897949219	-164.7422027587891	485.8710937500001	-885.7225341796877	-116.2946701049805	454.6867980957032	-893.170349121094	-100.5757217407227	475.5638732910157	-1007.91357421875	19.82328224182129	417.5081176757814	-914.095642089844	50.48595809936525	315.1029663085938	-890.3249511718752	76.82736206054689	352.8260803222657	-901.2193603515627	122.0001678466797	340.4626159667969	-935.2866821289065	212.1087951660157	210.6016693115235	-906.7024536132815	207.7833404541016	241.1126098632813	-986.281188964844	211.1466979980469	149.2486267089844	-949.1785278320315	322.1552734375001	322.7397460937501	-974.1741943359377	315.4013061523438	333.1527099609376	-926.251403808594	318.6531372070313	300.5148925781251	-873.646667480469	
1117	5.58	-250.7698364257813	1399.910400390625	-1012.374389648438	-382.0399169921876	1323.8154296875	-1115.147338867188	-372.9906311035157	1324.817138671875	-962.9455566406252	-423.104461669922	1206.804931640625	-1033.267333984375	-503.1383056640626	907.4985961914065	-1029.68994140625	-299.0238037109376	1126.470947265625	-1041.404052734375	-353.1997375488282	1156.788940429688	-1198.806518554688	-211.0958557128907	1119.503295898438	-1281.33203125	-177.6915130615235	1138.316528320313	-1249.308349609375	-145.2755889892578	1118.487670898438	-1297.916015625	-94.30598449707033	1103.393188476563	-1311.312744140625	-81.52481079101564	1041.70166015625	-1263.173828125	151.7103729248047	1146.075805664063	-1263.337890625	147.9026336669922	1149.83544921875	-1328.396362304688	233.6372070312501	1168.210571289063	-1264.339233398438	-335.0776367187501	1153.531860351563	-884.2297363281252	-199.8167877197266	1096.552490234375	-797.3584594726565	-170.045883178711	1130.336059570313	-817.1506347656252	-129.9719696044922	1091.03515625	-793.128601074219	-62.651912689209	1096.392822265625	-796.1887207031252	-58.25411224365236	1049.244750976563	-855.1175537109377	180.9825592041016	1121.583984375	-852.722839355469	172.8741455078125	1117.287353515625	-786.5144653320315	253.2096405029297	1142.523681640625	-841.7875976562502	-361.6877441406251	732.8341674804689	-1133.543090820313	-365.9825134277344	733.7628173828126	-917.0315551757815	-528.8377685546876	792.4980468750002	-1025.912231445313	-536.1158447265626	764.2329711914064	-1056.274658203125	-539.4469604492189	760.0178222656251	-999.4799804687502	-357.3608398437501	599.1707763671876	-1205.85888671875	-278.6620788574219	568.6460571289064	-1201.012939453125	-246.8331146240235	601.8641357421876	-1180.759033203125	-260.2129211425782	511.0705871582032	-1191.312255859375	-154.0220794677735	400.1048278808595	-1153.874145507813	-146.5724334716797	416.2831420898439	-1037.923950195313	-184.5480346679688	282.0433044433594	-1050.819458007813	-224.9878540039063	227.0417480468751	-1108.675903320313	-202.4958648681641	228.1194305419922	-1066.117919921875	-264.2202758789063	185.9573974609375	-1027.561279296875	-375.3618164062501	107.0425491333008	-1073.085327148438	-348.8673706054688	120.8897476196289	-990.827819824219	-440.7481384277345	96.4576110839844	-1024.722412109375	-238.9248199462891	50.6117630004883	-1003.013610839844	-233.2135162353516	48.99216461181642	-1041.831665039063	-258.1252136230469	43.97290039062501	-1092.051147460938	-283.7420043945313	543.5493774414064	-858.9226684570315	-217.3984985351563	548.6683959960939	-865.260925292969	-203.8108978271485	579.1250000000001	-875.6970214843752	-164.5452575683594	486.8668823242189	-885.971130371094	-116.0457763671875	455.6621093750001	-893.2734375000002	-100.2844924926758	476.4043273925782	-1007.994995117188	20.24006080627442	418.7361755371095	-914.4801025390627	50.86035156250001	316.2323913574219	-890.4433593750002	77.22583770751955	353.9937133789063	-901.4447021484377	122.4696960449219	341.5978088378907	-935.3611450195315	212.6804809570313	212.0936889648438	-906.8511962890627	208.2807922363282	242.638656616211	-986.3997802734377	211.8626098632813	150.5407409667969	-949.6716308593752	322.3766174316407	324.0914611816407	-974.4436645507815	315.8175354003907	334.6557922363282	-926.3543701171877	319.2207946777344	302.2384033203126	-873.5615234375002	
